<svg width="65" height="64" viewBox="0 0 65 64" fill="none" xmlns="http://www.w3.org/2000/svg">
<path fill-rule="evenodd" clip-rule="evenodd" d="M38.0495 48.8254C46.2753 46.4914 59.3757 37.6224 45.9707 20.8179L45.9283 20.7033L41.8665 32.69L33.7156 35.2735L28.4322 44.7684L17.9303 33.3902L26.9739 27.6974L30.1239 19.6958L44.3905 16.5454L43.381 13.816C43.4826 9.5033 41.4312 0.756032 32.4132 0.268946C23.3953 -0.218141 18.2973 0.065993 16.8755 0.268946C15.6569 0.167455 13.1892 0.877761 13.0673 4.53091C12.9454 8.18406 13.0165 33.0458 13.0673 45.02C13.2196 45.984 14.1946 48.0948 16.8755 48.8254H38.0495Z" fill="white"/>
<path d="M0 63.6744V52.4813H5.70458C7.17056 52.4813 8.26473 52.7532 8.9871 53.2968C9.70947 53.8298 10.0707 54.5334 10.0707 55.4075C10.0707 55.9832 9.91662 56.4895 9.60855 56.9266C9.3111 57.353 8.88618 57.6941 8.33378 57.95C7.79201 58.1952 7.144 58.3177 6.38977 58.3177L6.70846 57.5502C7.49456 57.5502 8.17975 57.6728 8.76402 57.918C9.34828 58.1525 9.79976 58.499 10.1185 58.9574C10.4478 59.4051 10.6124 59.9541 10.6124 60.6043C10.6124 61.5744 10.2194 62.3313 9.43327 62.8749C8.65779 63.4079 7.52112 63.6744 6.02327 63.6744H0ZM3.12318 61.3879H5.76832C6.31009 61.3879 6.71908 61.2972 6.99528 61.116C7.2821 60.9241 7.42551 60.6363 7.42551 60.2526C7.42551 59.8688 7.2821 59.5863 6.99528 59.4051C6.71908 59.2132 6.31009 59.1173 5.76832 59.1173H2.90009V56.9266H5.29028C5.82143 56.9266 6.2198 56.836 6.48537 56.6548C6.75095 56.4735 6.88374 56.2017 6.88374 55.8393C6.88374 55.4768 6.75095 55.2103 6.48537 55.0398C6.2198 54.8585 5.82143 54.7679 5.29028 54.7679H3.12318V61.3879Z" fill="url(#paint0_linear_1_247)"/>
<path d="M12.1032 63.6744V51.8097H15.1308V63.6744H12.1032Z" fill="url(#paint1_linear_1_247)"/>
<path d="M21.6237 63.8184C20.6039 63.8184 19.7116 63.6265 18.9467 63.2427C18.1925 62.8483 17.6029 62.3153 17.178 61.6437C16.7637 60.9615 16.5565 60.1886 16.5565 59.3251C16.5565 58.4617 16.7584 57.6941 17.162 57.0225C17.5763 56.3403 18.1447 55.8126 18.867 55.4395C19.5894 55.0558 20.4021 54.8639 21.305 54.8639C22.1549 54.8639 22.9304 55.0398 23.6315 55.3915C24.3326 55.7327 24.8903 56.239 25.3046 56.9106C25.7189 57.5822 25.9261 58.3977 25.9261 59.3571C25.9261 59.4637 25.9207 59.5863 25.9101 59.7249C25.8995 59.8635 25.8889 59.9914 25.8783 60.1086H19.0423V58.5096H24.2689L23.1216 58.9574C23.1322 58.5629 23.0578 58.2218 22.8985 57.934C22.7498 57.6462 22.5373 57.4223 22.2611 57.2624C21.9955 57.1025 21.6821 57.0225 21.321 57.0225C20.9598 57.0225 20.6411 57.1025 20.3649 57.2624C20.0993 57.4223 19.8922 57.6515 19.7434 57.95C19.5947 58.2378 19.5204 58.5789 19.5204 58.9733V59.4371C19.5204 59.8635 19.6053 60.2312 19.7753 60.5404C19.9559 60.8495 20.2109 61.0894 20.5402 61.2599C20.8695 61.4198 21.2625 61.4998 21.7193 61.4998C22.1442 61.4998 22.5054 61.4412 22.8029 61.3239C23.1109 61.196 23.4137 61.0041 23.7111 60.7482L25.3046 62.4112C24.8903 62.8696 24.3804 63.2214 23.7749 63.4666C23.1694 63.7011 22.4523 63.8184 21.6237 63.8184Z" fill="url(#paint2_linear_1_247)"/>
<path d="M32.9469 54.8639C33.6161 54.8639 34.2216 55.0025 34.7634 55.2796C35.3052 55.5461 35.7301 55.9619 36.0382 56.5268C36.3569 57.0918 36.5162 57.822 36.5162 58.7175V63.6744H33.4886V59.2132C33.4886 58.5949 33.3612 58.1472 33.1062 57.87C32.8619 57.5822 32.5166 57.4383 32.0705 57.4383C31.7518 57.4383 31.4596 57.5129 31.194 57.6621C30.9285 57.8007 30.7213 58.0193 30.5726 58.3177C30.4239 58.6162 30.3495 59.0053 30.3495 59.485V63.6744H27.3219V55.0078H30.2061V57.4703L29.6484 56.7507C29.9777 56.1218 30.4292 55.6527 31.0028 55.3436C31.5765 55.0238 32.2245 54.8639 32.9469 54.8639Z" fill="url(#paint3_linear_1_247)"/>
<path d="M42.2865 63.8184C41.5004 63.8184 40.7833 63.6371 40.1353 63.2747C39.498 62.9016 38.9881 62.3846 38.6056 61.7236C38.2232 61.0521 38.032 60.2526 38.032 59.3251C38.032 58.4084 38.2232 57.6195 38.6056 56.9586C38.9881 56.287 39.498 55.77 40.1353 55.4075C40.7833 55.0451 41.5004 54.8639 42.2865 54.8639C43.0301 54.8639 43.6569 55.0238 44.1668 55.3436C44.6873 55.6634 45.0804 56.1537 45.3459 56.8147C45.6115 57.4756 45.7443 58.3124 45.7443 59.3251C45.7443 60.3592 45.6168 61.2066 45.3619 61.8676C45.1069 62.5285 44.7245 63.0189 44.2146 63.3387C43.7047 63.6585 43.062 63.8184 42.2865 63.8184ZM42.9239 61.4038C43.2638 61.4038 43.5666 61.3239 43.8322 61.164C44.1084 61.0041 44.3261 60.7696 44.4855 60.4604C44.6448 60.1406 44.7245 59.7622 44.7245 59.3251C44.7245 58.8881 44.6448 58.5203 44.4855 58.2218C44.3261 57.9127 44.1084 57.6781 43.8322 57.5182C43.5666 57.3583 43.2638 57.2784 42.9239 57.2784C42.5733 57.2784 42.26 57.3583 41.9838 57.5182C41.7182 57.6781 41.5057 57.9127 41.3464 58.2218C41.187 58.5203 41.1073 58.8881 41.1073 59.3251C41.1073 59.7622 41.187 60.1406 41.3464 60.4604C41.5057 60.7696 41.7182 61.0041 41.9838 61.164C42.26 61.3239 42.5733 61.4038 42.9239 61.4038ZM44.8201 63.6744V62.1874L44.836 59.3251L44.6767 56.4629V51.8097H47.7043V63.6744H44.8201Z" fill="url(#paint4_linear_1_247)"/>
<path d="M49.6521 63.6744V55.0078H52.6797V63.6744H49.6521ZM51.1659 54.0484C50.6135 54.0484 50.1674 53.8938 49.8274 53.5847C49.4875 53.2755 49.3175 52.8918 49.3175 52.4334C49.3175 51.975 49.4875 51.5912 49.8274 51.2821C50.1674 50.9729 50.6135 50.8184 51.1659 50.8184C51.7183 50.8184 52.1645 50.9676 52.5044 51.2661C52.8444 51.5539 53.0143 51.927 53.0143 52.3854C53.0143 52.8651 52.8444 53.2649 52.5044 53.5847C52.1751 53.8938 51.7289 54.0484 51.1659 54.0484Z" fill="url(#paint5_linear_1_247)"/>
<path d="M53.1765 63.6744L58.0525 56.8786L58.0366 59.1332L53.3518 52.4813H56.9052L59.9009 56.8147L58.3872 56.8307L61.335 52.4813H64.745L60.0603 59.0053V56.7667L65 63.6744H61.3669L58.3234 59.1173H59.7735L56.7778 63.6744H53.1765Z" fill="url(#paint6_linear_1_247)"/>
<defs>
<linearGradient id="paint0_linear_1_247" x1="33.2222" y1="37.8184" x2="33.2222" y2="78.2628" gradientUnits="userSpaceOnUse">
<stop stop-color="#F93E48"/>
<stop offset="1" stop-color="#F9EA3E" stop-opacity="0"/>
</linearGradient>
<linearGradient id="paint1_linear_1_247" x1="33.2222" y1="37.8184" x2="33.2222" y2="78.2628" gradientUnits="userSpaceOnUse">
<stop stop-color="#F93E48"/>
<stop offset="1" stop-color="#F9EA3E" stop-opacity="0"/>
</linearGradient>
<linearGradient id="paint2_linear_1_247" x1="33.2222" y1="37.8184" x2="33.2222" y2="78.2628" gradientUnits="userSpaceOnUse">
<stop stop-color="#F93E48"/>
<stop offset="1" stop-color="#F9EA3E" stop-opacity="0"/>
</linearGradient>
<linearGradient id="paint3_linear_1_247" x1="33.2222" y1="37.8184" x2="33.2222" y2="78.2628" gradientUnits="userSpaceOnUse">
<stop stop-color="#F93E48"/>
<stop offset="1" stop-color="#F9EA3E" stop-opacity="0"/>
</linearGradient>
<linearGradient id="paint4_linear_1_247" x1="33.2222" y1="37.8184" x2="33.2222" y2="78.2628" gradientUnits="userSpaceOnUse">
<stop stop-color="#F93E48"/>
<stop offset="1" stop-color="#F9EA3E" stop-opacity="0"/>
</linearGradient>
<linearGradient id="paint5_linear_1_247" x1="33.2222" y1="37.8184" x2="33.2222" y2="78.2628" gradientUnits="userSpaceOnUse">
<stop stop-color="#F93E48"/>
<stop offset="1" stop-color="#F9EA3E" stop-opacity="0"/>
</linearGradient>
<linearGradient id="paint6_linear_1_247" x1="33.2222" y1="37.8184" x2="33.2222" y2="78.2628" gradientUnits="userSpaceOnUse">
<stop stop-color="#F93E48"/>
<stop offset="1" stop-color="#F9EA3E" stop-opacity="0"/>
</linearGradient>
</defs>
</svg>
